# xmcd
#
# Track frame offsets: 
#        187
#        21080
#        40492
#        55932
#        77712
#        99417
#        121322
#        142192
#        163132
#        184812
#        203790
#        220330
#
# Disc length: 3446 seconds
#
# Revision: 4
# Processed by: cddbd v1.5.1PL2 Copyright (c) Steve Scherf et al.
# Submitted via: ExactAudioCopy v0.95b3
#
DISCID=ae0d740c
DTITLE=Curtis Salgado and The Stilettos - Curtis Salgado and The Stilettos
DYEAR=1991
DGENRE=Blues
TTITLE0=More Love, Less Attitude
TTITLE1=You Love Me And I Don't Blame You
TTITLE2=Star Bright, Star Light
TTITLE3=I Musta' Been Nuts
TTITLE4=A World Gone By Me
TTITLE5=Boppin' That Lovin' Stuff
TTITLE6=I Shouted Your Name
TTITLE7=Everyday Will Be Like A Holiday
TTITLE8=Bottle Of Dreams
TTITLE9=Depending On Your Love
TTITLE10=Too Loose
TTITLE11=Blues Get Off My Shoulder
EXTD=
EXTT0=
EXTT1=
EXTT2=
EXTT3=
EXTT4=
EXTT5=
EXTT6=
EXTT7=
EXTT8=
EXTT9=
EXTT10=
EXTT11=
PLAYORDER=
